# xmcd
#
# Track frame offsets:
#	150
#	16705
#	35020
#	49977
#	66132
#	80075
#	92537
#	108095
#	124027
#	142177
#	159737
#	175707
#	191747
#	205845
#	219655
#	234295
#	248302
#	264847
#
# Disc length: 3745 seconds
#
# Revision: 2
# Processed by: cddbd v1.5.2PL0 Copyright (c) Steve Scherf et al.
# Submitted via: audiograbber 1.83.01
#
DISCID=ef0e9f12
DTITLE=Diverse dt. - Schlage Sommer 91
DYEAR=1900
DGENRE=Deutsche Schlager
TTITLE0=Roy Black - Frag Maria
TTITLE1=Roland Kaiser - Wind auf der Haut und Lisa
TTITLE2=Nicki - Hals  ueber Kopf
TTITLE3=Michael Stein - Martinique Cherie
TTITLE4=Romantic Flamingos - Hey bonjour
TTITLE5=Claudia Jung - Mittsommernacht
TTITLE6=Ibo - Zieh die Schuh aus
TTITLE7=Rex Gildo - Adrea
TTITLE8=Nicole - Steh wie ein Mann zu mir
TTITLE9=Andy Borg - Ich sag  es mit Musik
TTITLE10=Fernando Express - Sehnsucht nach Samoa
TTITLE11=Kristina Bach - Antonio
TTITLE12=Tom Astor - Take it Easy
TTITLE13=Nadine Norell - Was fuer ein schoener Tag
TTITLE14=Die Flippers - Goodbye Eloisa
TTITLE15=Die Wildecker Herzbuben - Zwei Kerle wie wir
TTITLE16=Andreas Martin - Deine Fl gel fangen Feuer
TTITLE17=Bernhard Brink - Ich glaub  Dir jede L ge
EXTD=
EXTT0=Roy Black
EXTT1=ROland Kaiser
EXTT2=Nicky
EXTT3=Michael Stein
EXTT4=Romantic Flamingos
EXTT5=Claudia Jung
EXTT6=Ibo
EXTT7=Rex Gildo
EXTT8=Nicole
EXTT9=Andy Borg
EXTT10=Fernando Express
EXTT11=Kristina Bach
EXTT12=Tom astor
EXTT13=Nadine Norelle
EXTT14=Die Flippers
EXTT15=Die Wildecker Herzbuben
EXTT16=Andreas Martin
EXTT17=Bernhard Brink
PLAYORDER=
